<?xml version="1.0" encoding="UTF-8"?>
<svg id="_城" data-name="城" xmlns="http://www.w3.org/2000/svg" version="1.1" viewBox="0 0 841.89 595.28">
  <defs>
    <style>
      .cls-1 {
        fill: #040000;
        stroke-width: 0px;
      }
    </style>
  </defs>
  <path class="cls-1" d="M420.94,91.76c-113.71,0-205.88,92.18-205.88,205.88s92.18,205.88,205.88,205.88,205.88-92.18,205.88-205.88-92.18-205.88-205.88-205.88ZM527.24,403.94c17.06,58.55-53.83,87.8-106.3,87.8s-121.05-27.54-106.3-87.8c-58.54,17.06-87.8-53.83-87.8-106.3s28.57-120.84,87.8-106.3c-16.89-58.67,53.83-87.8,106.3-87.8s121.04,27.54,106.3,87.8c58.55-17.06,87.8,53.83,87.8,106.3s-27.54,121.04-87.8,106.3Z"/>
  <g>
    <g>
      <path class="cls-1" d="M297.67,229.01c1.5,6.36,3.03,30.61,17.71,30.54v-17.3s-12-.53-17.71-13.25Z"/>
      <path class="cls-1" d="M516.89,242.29c-12.56,0-19.26-16.41-13.21-26.56,15.03-26.56-15.03-37.71-15.03-37.71,13.12,33.26-11.55,37.32-20.72,37.71h-93.98c-9.17-.39-33.84-4.45-20.72-37.71,0,0-30.05,11.16-15.03,37.71,6.06,10.14-.65,26.56-13.21,26.56h-9.62v17.27h0s96.71,0,96.71,0h114.42v-17.27h-9.62Z"/>
      <path class="cls-1" d="M526.51,242.26v17.3c14.68.07,16.2-24.19,17.7-30.54-5.7,12.72-17.7,13.25-17.7,13.25Z"/>
    </g>
    <path class="cls-1" d="M532.5,274.25h-223.12c-23.7,28.25,0,56.5,0,56.5h223.12s23.7-28.25,0-56.5Z"/>
    <path class="cls-1" d="M532.64,345.45h-223.39s0,34.63-22.59,43.82h268.57c-22.59-9.19-22.59-43.82-22.59-43.82Z"/>
  </g>
</svg>