<svg width="513" height="600" viewBox="0 0 513 600" fill="none" xmlns="http://www.w3.org/2000/svg">
<path d="M304.45 258.733C303.896 268.214 300.814 279.408 295.847 288.254C286.187 305.448 272.064 308.712 263.714 302.129C255.052 295.302 254.621 278.93 264.283 261.739C268.802 253.693 274.583 247.267 280.409 243.234L304.452 258.737L304.45 258.733Z" fill="#FFF7DA"/>
<path d="M286.778 234.786C286.888 234.607 287.004 234.431 287.123 234.252L298.617 217.492C302.824 211.359 311.264 209.697 317.376 213.8L318.889 214.818C325.001 218.921 326.555 227.3 322.35 233.436L310.856 250.197C310.734 250.371 310.611 250.542 310.483 250.71L286.778 234.786Z" fill="#FFF7DA"/>
<path d="M235.593 378.914C233.394 388.177 228.413 398.695 221.988 406.568C209.496 421.872 195.051 422.653 187.996 414.712C180.677 406.477 183.111 390.241 195.604 374.941C201.449 367.78 208.25 362.436 214.678 359.461L235.594 378.918L235.593 378.914Z" fill="#FFF7DA"/>
<path d="M222.411 352.222C222.55 352.065 222.695 351.911 222.843 351.756L237.061 337.197C242.265 331.87 250.847 331.688 256.136 336.795L257.445 338.061C262.734 343.167 262.798 351.706 257.596 357.037L243.377 371.596C243.228 371.747 243.077 371.894 242.921 372.038L222.411 352.222Z" fill="#FFF7DA"/>
<path d="M351.439 342.346C352.286 349.307 351.295 357.827 348.236 366.51C341.702 385.073 329.035 395.708 318.08 393.946C307.512 392.246 300.538 379.744 307.073 361.182C310.433 351.633 316.831 341.892 323.632 335.143L351.437 342.342L351.439 342.346Z" fill="#FFF7DA"/>
<path d="M353.56 332.041C353.623 331.841 353.68 331.639 353.732 331.431L358.714 311.819C360.539 304.642 356.147 297.363 348.958 295.642L347.176 295.216C339.986 293.495 332.612 297.962 330.786 305.138L325.804 324.751C325.75 324.955 325.708 325.162 325.666 325.369L353.564 332.038L353.56 332.041Z" fill="#FFF7DA"/>
<path d="M260.385 466.622C260.003 473.64 257.542 481.879 253.021 489.922C243.361 507.116 229.059 515.425 218.604 511.793C208.518 508.289 203.848 494.743 213.508 477.549C218.475 468.704 226.462 460.194 234.322 454.708L260.384 466.618L260.385 466.622Z" fill="#FFF7DA"/>
<path d="M264.269 456.817C264.366 456.631 264.457 456.442 264.544 456.245L272.862 437.747C275.908 430.978 272.863 423.033 266.1 420.092L264.423 419.364C257.66 416.422 249.635 419.558 246.589 426.326L238.271 444.825C238.182 445.018 238.105 445.215 238.027 445.411L264.273 456.815L264.269 456.817Z" fill="#FFF7DA"/>
<path d="M361.908 134.179C361.356 143.664 358.272 154.854 353.305 163.7C343.645 180.894 329.522 184.158 321.172 177.575C312.51 170.748 312.079 154.376 321.741 137.185C326.26 129.139 332.041 122.713 337.867 118.68L361.91 134.183L361.908 134.179Z" fill="#FFF7DA"/>
<path d="M344.235 110.231C344.345 110.053 344.461 109.876 344.58 109.698L356.074 92.9377C360.281 86.8049 368.721 85.1431 374.833 89.2463L376.346 90.264C382.458 94.3672 384.012 102.745 379.807 108.882L368.313 125.643C368.191 125.817 368.068 125.988 367.94 126.156L344.231 110.233L344.235 110.231Z" fill="#FFF7DA"/>
<path d="M411.653 193.115C413.199 199.948 413.07 208.512 410.898 217.445C406.258 236.542 394.71 248.373 383.619 247.716C372.919 247.081 364.711 235.355 369.35 216.259C371.735 206.435 377.127 196.118 383.224 188.734L411.65 193.112L411.653 193.115Z" fill="#FFF7DA"/>
<path d="M412.723 182.663C412.765 182.458 412.801 182.253 412.832 182.041L415.819 162.056C416.914 154.743 411.805 147.948 404.465 146.959L402.647 146.713C395.311 145.72 388.41 150.898 387.318 158.208L384.332 178.193C384.298 178.401 384.277 178.611 384.256 178.821L412.723 182.663Z" fill="#FFF7DA"/>
</svg>
