<svg width="71" height="74" viewBox="0 0 71 74" fill="none" xmlns="http://www.w3.org/2000/svg">
<path d="M56.7725 28.8543C54.6329 26.9486 51.7478 28.6155 50.423 30.6195C49.6359 31.8111 49.1166 33.2157 48.5326 34.515C47.981 34.6087 47.427 34.6929 46.8754 34.7608C44.8466 35.0137 42.8016 35.1026 40.7589 35.0511C40.2488 35.0371 39.7388 35.016 39.2287 34.9856C35.6973 35.112 30.8503 36.2825 29.2346 34.1756C27.3881 31.8345 33.62 33.9415 35.6811 32.2887C35.8196 32.1482 35.9927 31.7619 36.0273 31.1649C36.0966 30.9191 35.9927 30.2168 35.6811 30.0061C35.3695 29.7954 35.1964 29.5847 34.6078 29.5145C34.1578 29.3389 33.7077 29.4794 33.0153 29.4794C32.5998 29.6198 31.942 29.4794 31.4919 29.4794C31.1111 29.4442 30.4186 29.5145 29.6223 29.4794C28.5837 29.4442 28.5145 29.0228 28.5145 28.1801C28.5837 27.5831 28.2375 27.0563 27.8566 26.8456C27.4412 26.5998 27.095 26.5998 26.6449 26.5647C26.2294 26.5296 25.4678 26.5296 25.26 26.8456C24.8099 27.2319 24.6715 27.5831 24.6022 28.0045C24.7061 28.6717 24.533 29.2687 24.6022 29.8656C24.6368 30.4626 24.5676 30.9894 24.6022 31.6566C24.4291 32.394 24.5676 32.8856 24.6022 33.8595C24.3853 35.1097 22.7696 35.5779 21.7633 34.7117C21.6248 34.3605 21.5209 34.2552 21.5209 33.4475C21.5209 32.8505 21.417 32.2887 21.4863 31.7619C21.3824 31.1649 21.5209 30.9542 21.4863 30.4626C21.5209 30.1466 21.1054 29.6549 20.8631 29.3389C20.4823 29.0228 20.1014 28.9175 19.5821 28.9877C19.0974 28.8473 18.6473 29.0228 18.3011 29.3389C17.7472 29.6901 17.7125 30.1114 17.6779 30.4275C17.6779 30.884 17.6779 31.3054 17.7125 31.6917C17.851 32.3238 17.6433 32.991 17.7818 33.5528C17.9203 34.0796 17.7125 34.4659 17.5048 34.7468C17.2971 35.2033 16.57 35.2384 16.4315 35.1682C15.6006 35.1682 14.8043 35.2033 14.285 35.2033C13.6964 35.1331 13.4541 35.414 13.2117 35.73C12.9001 35.9056 12.8309 36.4324 12.8655 36.8889C12.8309 37.3805 12.9694 37.8721 13.2117 38.0477C13.4541 38.2935 13.8695 38.5393 14.285 38.5745C14.7005 38.6096 15.2198 38.5393 15.8084 38.6096C16.1892 38.7149 16.6393 38.6798 17.2971 38.6096C17.7472 38.75 18.4396 38.6798 18.7858 38.6096C19.2359 38.6096 19.8937 38.5393 20.2745 38.6049C26.9242 37.6872 33.8485 37.6872 40.6204 38.6119C41.3083 38.6306 41.9961 38.633 42.6839 38.6189C44.0595 38.5908 45.4328 38.4972 46.8039 38.3357C46.6815 38.6072 46.5592 38.8765 46.4369 39.148C45.3013 41.6577 43.771 44.4108 45.3567 47.0866C46.3584 48.7745 48.281 49.5869 49.3035 51.1976C50.4183 52.9534 46.9931 54.6226 46.0214 55.6035C43.6856 57.9609 43.7802 61.3859 45.5875 64.0524C46.5384 65.4547 47.8033 66.5457 48.9942 67.7232C49.9821 68.6995 51.1108 69.8981 51.2539 71.3683C51.3462 72.3281 51.9971 73.1545 53.015 73.1545C53.8966 73.1545 54.8707 72.3352 54.776 71.3683C54.5406 68.9383 53.3081 67.0279 51.6255 65.3377C50.1668 63.8698 47.9025 62.3177 47.7248 60.0398C47.5632 57.9563 50.2775 56.9145 51.4547 55.6175C52.9157 54.0115 53.5666 51.8531 52.5741 49.8163C51.8471 48.3251 50.4553 47.3933 49.2874 46.293C48.8511 45.8833 48.3295 45.4127 48.1887 44.7994C47.9394 43.7225 48.8696 42.3015 49.2897 41.372C49.8367 40.1617 50.3791 38.9467 50.9215 37.7317C52.5279 37.4039 54.0951 36.8936 55.3808 35.9548C57.4396 34.4471 59.083 30.9121 56.7725 28.8543ZM52.9873 33.2906C53.3358 32.682 53.7282 32.1973 54.2636 31.6659C54.2752 31.6542 54.289 31.6495 54.3075 31.6449C54.2313 31.9188 54.1759 32.181 53.9867 32.4385C53.7189 32.799 53.3727 33.0729 52.9896 33.2906L52.9873 33.2906Z" fill="#004B88"/>
<path d="M22.7675 23.6899C22.7675 24.7785 22.8713 25.5511 22.7328 26.0778C22.8367 26.5694 22.4559 26.9206 22.2135 27.1313C21.9019 27.2717 21.4518 27.5878 21.071 27.4824C20.4824 27.5878 20.2747 27.4122 19.9285 27.1313C19.6861 26.8504 19.3399 26.6748 19.3745 26.0778C19.4784 25.5159 19.4092 24.8487 19.3745 24.2166C19.4092 23.6197 19.3745 23.3036 19.3053 23.1632C19.2014 22.9876 19.0629 23.0227 18.8898 23.1983C18.6475 23.4441 18.3359 23.9006 18.1282 24.0762C17.6781 24.322 17.4357 24.8838 17.0895 24.9892C16.8126 25.3404 16.3278 25.4457 16.1201 25.3755C15.7047 25.235 15.5662 25.2701 15.1161 24.919C14.7699 24.638 14.666 24.4625 14.7006 23.9006C14.7006 23.5494 14.943 22.812 15.2892 22.5662C15.5662 22.0043 15.9816 21.9341 16.3971 21.3722C16.8126 21.1615 16.9857 20.6348 17.2973 20.3539C17.7127 20.108 17.9551 19.5462 18.2667 19.0897C18.3705 18.9141 18.4051 18.7736 18.3705 18.6683C18.232 18.4576 17.7127 18.4225 17.0203 18.4225C16.1894 18.3522 15.9124 18.2118 15.5662 17.966C15.4277 17.8606 15.2892 17.5094 15.22 16.9827C15.1161 16.2101 15.7047 15.6483 16.4317 15.5078C16.8818 15.4376 17.4011 15.5429 18.3359 15.4727C18.8206 15.4025 19.3745 15.1567 19.3399 14.2085C19.3399 13.436 19.4438 13.0146 19.9631 12.839C20.4132 12.5229 20.6209 12.5229 21.071 12.4878C21.2787 12.4878 21.9365 12.6985 22.1443 12.839C22.5251 12.9795 22.7675 13.2604 22.7328 13.8574C22.7328 14.5948 22.8713 14.9811 23.2868 15.2269C23.7022 15.4727 24.4293 15.4376 24.8447 15.4727C25.4333 15.5078 25.7449 15.6483 25.9873 15.9643C26.195 16.3506 26.2296 16.456 26.3335 16.9827C26.4027 17.2987 26.2642 17.685 25.9873 18.0011C25.8834 18.1064 25.4679 18.4927 24.9486 18.4576C23.9446 18.4225 23.5291 18.4927 23.4253 18.7385C23.3906 18.8087 23.4253 18.9141 23.4599 19.0194C23.9446 19.5813 24.36 19.792 24.6716 20.0027C25.0179 20.4943 25.2948 20.6348 25.6064 20.9508C25.8834 21.302 25.8834 21.6883 25.9873 21.9341C25.6757 22.7066 25.2602 23.2334 24.6716 23.3036C24.3254 23.4792 23.7369 23.0929 23.3906 22.7418C22.9059 22.4257 22.6982 22.6364 22.7675 23.6899Z" fill="#004B88"/>
<path d="M39.9736 23.3387C40.0775 24.1113 40.0775 24.5678 39.662 24.8838C39.4889 25.235 38.9003 25.5159 38.5541 25.4106C37.9309 25.5511 37.2731 25.0945 36.8923 24.5327C36.5461 24.2166 36.4768 23.9708 36.1306 23.8304C35.819 23.5494 35.6113 23.3036 35.4036 23.128C34.815 22.5311 34.6419 22.6364 34.4342 22.9173C34.2264 23.0578 34.3649 24.0411 34.2957 24.4976C34.1918 25.1297 34.3303 25.4808 34.261 25.9373C34.1918 26.5343 33.8802 26.7801 33.7417 26.9908C33.3609 27.2717 32.9454 27.342 32.5992 27.342C32.3222 27.3069 31.8375 27.1664 31.4567 26.9908C31.2836 26.9206 30.9028 26.3938 30.9028 25.9373C31.0412 25.4808 30.972 24.7434 30.972 24.2166C30.972 22.9876 31.0412 22.6715 30.7989 22.6013C30.5565 22.5311 30.4181 22.7418 29.8987 23.3036C29.5179 23.5143 29.4487 23.7952 29.2409 24.0411C28.9986 24.3922 28.5139 24.7434 27.9946 25.1648C27.5099 25.5159 27.2675 25.5862 26.852 25.6213C26.2981 25.7266 26.0904 25.4106 25.8134 25.1648C25.4326 24.8487 25.3979 24.4976 25.3633 24.1464C25.2941 23.5845 25.848 22.9876 26.3327 22.5662C26.6443 22.1448 27.0944 22.0745 27.3714 21.5829C27.5445 21.0913 28.0984 21.0562 28.3754 20.5294C28.5831 20.3187 29.1371 19.7569 29.5179 19.1599C29.7256 18.9492 29.7602 18.7736 29.6218 18.6683C29.4833 18.5278 29.1371 18.4576 28.5485 18.4576C28.0292 18.4576 27.4752 18.4225 27.1983 17.966C26.852 17.5446 26.9213 17.2987 26.8867 16.9827C26.8174 16.175 27.406 15.3674 28.0984 15.5078C28.4793 15.4025 29.0332 15.4376 29.8987 15.4727C30.7989 15.4376 30.9028 15.0864 30.9028 13.8574C31.0066 13.155 31.1105 13.1199 31.4913 12.839C31.9068 12.6985 31.976 12.5229 32.5992 12.4878C32.8069 12.4878 33.2916 12.6634 33.6725 12.839C34.0879 12.9092 34.1572 13.2604 34.261 13.8574C34.261 14.4543 34.1572 14.9108 34.538 15.262C34.6765 15.5078 35.2305 15.5429 35.5074 15.4727C36.4076 15.6483 37.1346 15.3322 37.7232 15.5078C38.4849 15.5078 38.9003 16.175 38.9003 16.9827C38.8311 17.8957 38.381 18.4225 37.7232 18.4576C36.5807 18.3873 35.9921 18.5278 35.819 18.8087C35.6113 19.1248 35.819 19.3706 36.7192 20.2134C37.1693 20.4592 37.377 20.9157 37.7232 21.0913C38.0694 21.5127 38.3464 21.7234 38.7965 21.9692C39.1773 22.3906 39.6966 22.6364 39.9736 23.3387Z" fill="#004B88"/>
<path d="M33.9867 69.7975C20.722 70.1674 8.05975 61.8776 2.82036 49.4792C-2.70985 36.9521 0.073721 21.4471 9.5831 11.631C28.0895 -7.77422 60.1859 0.236957 68.352 25.8156C69.4414 29.2242 70.023 32.8084 70.09 36.3996C70.1269 38.3544 68.5943 39.9698 66.6647 40.0072C64.6867 40.0494 63.0595 38.3942 63.108 36.3879C63.6158 21.199 51.8306 7.64414 36.941 5.99601C21.5783 3.95693 6.68412 14.8219 3.48971 30.2309C-0.0739973 46.1947 9.31536 62.5331 24.6712 67.536C26.1668 68.037 27.7086 68.3975 29.2643 68.6808C30.8246 68.9477 32.4033 69.0811 33.989 69.135C34.409 69.135 34.4229 69.7881 33.989 69.7975L33.9867 69.7975Z" fill="#004B88"/>
<path d="M14.3744 52.9253C14.3674 53.0447 14.3259 53.1852 14.2359 53.2273C14.1736 53.3327 14.0489 53.3327 13.9243 53.3327C13.8135 53.3678 13.6889 53.2765 13.6058 53.2273C13.495 53.1922 13.4811 53.0658 13.4604 52.9253C13.4465 52.8551 13.4257 52.7357 13.4604 52.6233C13.4465 52.5461 13.4465 52.4337 13.4604 52.3424C13.4534 52.23 13.4881 52.1387 13.4604 52.0545C13.4881 51.9632 13.4465 51.8789 13.4604 51.7595C13.4327 51.6752 13.4742 51.5699 13.4604 51.4715C13.4257 51.4013 13.4465 51.2959 13.4604 51.1836C13.4742 51.0993 13.4811 51.008 13.4604 50.8956C13.4742 50.7903 13.4396 50.706 13.4604 50.6006C13.4811 50.5304 13.4534 50.404 13.4604 50.3127C13.4327 50.2214 13.4881 50.116 13.4604 50.0247C13.4811 49.8983 13.4881 49.8281 13.4604 49.7368C13.4881 49.6455 13.4811 49.5331 13.4604 49.4418C13.4396 49.3786 13.4742 49.2592 13.4604 49.1539C13.4465 49.0485 13.4465 48.9432 13.4604 48.8659C13.4673 48.7606 13.4327 48.6622 13.4604 48.578C13.4742 48.4656 13.4257 48.3673 13.4604 48.283C13.4673 48.1495 13.5227 48.0372 13.6058 47.981C13.7096 47.8967 13.8273 47.8405 13.9243 47.8686C14.0628 47.8967 14.1528 47.9107 14.2359 47.981C14.3328 48.0653 14.3328 48.1776 14.3744 48.283C14.3467 48.3953 14.3467 48.4867 14.3744 48.578C14.4021 48.6903 14.3605 48.7886 14.3744 48.8659C14.3882 48.9432 14.3882 49.0977 14.3744 49.1539C14.3397 49.2733 14.3813 49.3646 14.3744 49.4418C14.3882 49.5331 14.3674 49.6666 14.3744 49.7368C14.3951 49.8351 14.3605 49.9334 14.3744 50.0247C14.3813 50.109 14.3674 50.2354 14.3744 50.3127C14.3882 50.4461 14.3467 50.5093 14.3744 50.6006C14.3397 50.706 14.3951 50.8184 14.3744 50.8956C14.3813 51.015 14.3674 51.0712 14.3744 51.1836C14.3674 51.2608 14.3397 51.4153 14.3744 51.4715C14.4021 51.5558 14.3744 51.6963 14.3744 51.7595C14.3467 51.8789 14.3536 51.9632 14.3744 52.0545C14.3397 52.1598 14.4021 52.23 14.3744 52.3424C14.4021 52.4267 14.3882 52.525 14.3744 52.6304C14.4021 52.7568 14.3674 52.827 14.3744 52.9253Z" fill="#004B88"/>
<path d="M19.491 52.6516C19.4633 52.778 19.491 52.8623 19.4495 52.9395C19.4149 53.0308 19.3733 53.1502 19.2902 53.1924C19.2002 53.2837 19.0548 53.3118 18.8817 53.3399C18.7847 53.3258 18.6393 53.3118 18.577 53.2907C18.4939 53.2907 18.397 53.1854 18.3277 53.1221C18.2516 53.0379 18.1893 52.9466 18.1546 52.8834C18.1131 52.785 18.0438 52.6937 18.03 52.6235C17.9885 52.5111 17.9192 52.4128 17.8915 52.3004C17.8153 52.2091 17.8153 52.1108 17.753 51.9774C17.7115 51.8931 17.6422 51.7877 17.6145 51.6543C17.5314 51.5349 17.5176 51.4647 17.4691 51.3312C17.4484 51.2048 17.3791 51.0995 17.3306 51.0082C17.2614 50.9098 17.2406 50.8185 17.1922 50.6781C17.1437 50.6078 17.0606 50.4884 17.0537 50.355C17.0052 50.2356 16.9498 50.1092 16.9083 50.0319C16.8321 49.9476 16.7975 49.8212 16.7698 49.7018C16.6936 49.6035 16.6936 49.463 16.6451 49.3647C16.6105 49.2945 16.6105 49.2523 16.5551 49.161C16.5205 49.1049 16.4166 49.0978 16.4166 49.1962C16.4166 49.2945 16.3959 49.3436 16.4097 49.4209C16.4236 49.4982 16.4028 49.5754 16.4097 49.6527C16.4305 49.7861 16.3889 49.8493 16.4166 49.9476C16.3889 50.053 16.4443 50.1654 16.4236 50.2426C16.3889 50.355 16.4166 50.4533 16.4236 50.5797C16.4305 50.6781 16.4443 50.7975 16.4236 50.9168C16.4443 51.0362 16.4374 51.1556 16.4236 51.254C16.4236 51.3453 16.4166 51.4857 16.4236 51.5911C16.4166 51.7175 16.3959 51.7877 16.4236 51.9282C16.4305 52.0406 16.3959 52.16 16.4236 52.2653C16.4028 52.3988 16.4097 52.476 16.4236 52.6024C16.4374 52.7359 16.4236 52.8061 16.4236 52.9536C16.4443 53.08 16.3889 53.1573 16.292 53.2345C16.202 53.3328 16.1327 53.3469 16.0012 53.3399C15.8627 53.3469 15.8073 53.2977 15.7034 53.2345C15.648 53.1362 15.6065 53.073 15.5788 52.9536C15.5926 52.778 15.5788 52.5884 15.5719 52.3917C15.5926 52.1881 15.5926 52.0335 15.5719 51.8439C15.5442 51.6332 15.5442 51.4717 15.5719 51.2961C15.5511 51.1486 15.5719 50.9028 15.5719 50.7413C15.558 50.5446 15.5649 50.369 15.5719 50.1935C15.5719 50.046 15.5996 49.8634 15.5719 49.6456C15.5857 49.4349 15.5788 49.3085 15.5719 49.0978C15.5511 48.9152 15.5372 48.7537 15.5719 48.55C15.5857 48.4447 15.5649 48.3604 15.6134 48.2621C15.6619 48.1989 15.6827 48.0865 15.7588 48.0233C15.7865 47.9882 15.8765 47.946 15.9596 47.9109C16.0496 47.8969 16.1327 47.8969 16.1881 47.8758C16.3405 47.8828 16.4236 47.9109 16.5482 47.932C16.6313 47.9811 16.7698 48.0373 16.8459 48.1286C16.9013 48.2129 16.9567 48.2831 17.0121 48.3604C17.0537 48.4306 17.1298 48.5219 17.1368 48.6132C17.1645 48.7186 17.2406 48.7958 17.2545 48.8942C17.2752 48.9855 17.3168 49.0978 17.3791 49.1821C17.4276 49.2594 17.4276 49.3717 17.4968 49.463C17.5591 49.5473 17.573 49.6737 17.6215 49.751C17.663 49.8634 17.6838 49.9476 17.7392 50.0319C17.7738 50.1373 17.843 50.2496 17.8638 50.3199C17.9054 50.4393 17.9746 50.5446 17.9885 50.6078C18.0092 50.6921 18.0508 50.8115 18.1062 50.8888C18.1616 51.0292 18.1893 51.0995 18.2447 51.2259C18.2793 51.3172 18.3 51.4857 18.3762 51.563C18.4455 51.6613 18.4316 51.7245 18.4732 51.8158C18.5009 51.872 18.5078 51.9633 18.5424 52.0125C18.5701 52.0476 18.6393 52.0476 18.6532 51.9914C18.6601 51.9493 18.667 51.865 18.667 51.8158C18.6601 51.7035 18.674 51.6051 18.6532 51.4857C18.6809 51.3944 18.6601 51.2399 18.667 51.1135C18.6463 51.0152 18.674 50.8817 18.667 50.7413C18.667 50.65 18.674 50.5446 18.6463 50.4322C18.6393 50.369 18.6601 50.2567 18.6463 50.1232C18.6393 50.0319 18.6463 49.9125 18.6463 49.8212C18.6463 49.7299 18.6324 49.6246 18.6463 49.5052C18.6601 49.3858 18.6601 49.3366 18.6463 49.1962C18.6116 49.1189 18.6463 49.0065 18.6393 48.8871C18.6532 48.7818 18.6324 48.7116 18.6393 48.5851C18.6601 48.4798 18.6255 48.3744 18.6463 48.2621C18.6324 48.1778 18.6601 48.0654 18.7709 47.9811C18.8471 47.9109 18.9579 47.8617 19.0686 47.8758C19.2002 47.9109 19.2902 47.9109 19.3664 47.9811C19.4495 48.0724 19.4633 48.1708 19.491 48.2621C19.4633 48.3393 19.491 48.4798 19.491 48.543C19.5049 48.6554 19.4633 48.7607 19.491 48.8169C19.4841 48.9925 19.4772 49.154 19.491 49.3647C19.4841 49.5754 19.4633 49.7159 19.491 49.9125C19.4979 50.0881 19.4841 50.2637 19.491 50.4603C19.491 50.671 19.4841 50.8396 19.491 51.0082C19.5049 51.2259 19.5118 51.3734 19.491 51.556C19.4979 51.7105 19.4633 51.9212 19.491 52.1038C19.5118 52.2794 19.4564 52.4901 19.491 52.6516Z" fill="#004B88"/>
<path d="M23.7502 50.6358C23.7571 50.7692 23.7294 50.8044 23.6948 50.9097C23.6325 51.0291 23.6187 51.0853 23.5425 51.1415C23.4802 51.1977 23.4109 51.289 23.3209 51.296C23.2447 51.3662 23.1409 51.3522 23.0439 51.3522C22.9262 51.3803 22.8708 51.3381 22.7739 51.296C22.677 51.2468 22.6008 51.1836 22.5454 51.1415C22.49 51.0572 22.4 50.9799 22.3931 50.9097C22.3723 50.8114 22.303 50.7201 22.3377 50.6358C22.3584 50.5585 22.3515 50.4391 22.3931 50.3549C22.4 50.2776 22.5108 50.1863 22.5454 50.1301C22.6354 50.0388 22.7185 50.0107 22.7739 49.9756C22.8847 49.9475 22.9678 49.9124 23.0439 49.9194C23.1547 49.9475 23.217 49.9335 23.314 49.9756C23.4109 50.0178 23.4455 50.088 23.5425 50.1301C23.6048 50.1933 23.6602 50.2565 23.6948 50.3619C23.7502 50.4321 23.771 50.5094 23.7502 50.6358Z" fill="#004B88"/>
<path d="M29.8089 52.0826C29.7535 52.202 29.7674 52.2933 29.7258 52.3776C29.6981 52.4689 29.6358 52.5953 29.5873 52.6515C29.5527 52.7498 29.4488 52.827 29.3934 52.8973C29.2757 53.0097 29.2342 53.0658 29.1026 53.122C28.9918 53.2204 28.8672 53.2625 28.7772 53.2765C28.6387 53.3257 28.521 53.3538 28.431 53.3608C28.334 53.3959 28.1748 53.403 28.0709 53.3889C27.9324 53.3819 27.7108 53.3959 27.5862 53.3468C27.4962 53.3397 27.4477 53.3468 27.3508 53.2906C27.2677 53.2906 27.2192 53.2836 27.1223 53.2133C27.0323 53.1782 26.9561 53.1642 26.9007 53.108C26.8522 53.0869 26.7691 53.0448 26.6999 52.9816C26.6583 52.9113 26.596 52.8832 26.5129 52.82C26.4298 52.7357 26.3814 52.6936 26.3468 52.6304C26.2914 52.5391 26.236 52.3986 26.229 52.3073C26.2221 52.2301 26.2844 52.0756 26.3675 52.0264C26.416 51.9913 26.5683 51.9281 26.6583 51.914C26.7761 51.914 26.8938 51.9491 26.963 52.0545C27.0392 52.1177 27.0738 52.202 27.1707 52.2863C27.2538 52.3424 27.2815 52.4057 27.3992 52.4689C27.4823 52.5672 27.6208 52.5883 27.7247 52.6093C27.8286 52.6164 27.9532 52.6234 28.0848 52.6444C28.2302 52.6164 28.3687 52.6234 28.4587 52.5812C28.6041 52.5461 28.701 52.4689 28.7633 52.3776C28.8603 52.3144 28.881 52.195 28.9226 52.1037C28.9295 52.0053 28.9988 51.8789 28.9711 51.7806C28.9849 51.6682 28.9641 51.5629 28.8949 51.4435C28.8603 51.3381 28.7564 51.2679 28.6733 51.1906C28.5556 51.1345 28.5002 51.0783 28.3894 51.0361C28.2509 51.0151 28.1609 50.9729 28.0709 50.9308C27.9878 50.9027 27.9116 50.9097 27.8216 50.8605C27.7385 50.8254 27.6347 50.7973 27.5516 50.7763C27.4616 50.7763 27.3646 50.7271 27.2815 50.6709C27.2123 50.6639 27.1292 50.5866 27.0253 50.5375C26.9561 50.4532 26.8453 50.4251 26.8038 50.3619C26.7207 50.3198 26.6237 50.2285 26.603 50.1161C26.5545 50.0178 26.506 49.9124 26.4783 49.8422C26.4368 49.7438 26.4091 49.6245 26.4091 49.5472C26.3883 49.477 26.3606 49.3295 26.3883 49.2382C26.3952 49.1679 26.3814 49.0907 26.4091 48.9713C26.3883 48.873 26.4506 48.8308 26.4783 48.7255C26.5337 48.6272 26.5476 48.5499 26.596 48.4867C26.6237 48.4235 26.6999 48.3743 26.7553 48.276C26.8176 48.2128 26.9145 48.1145 27.0253 48.0653C27.1361 48.0232 27.2192 47.9389 27.3231 47.9319C27.4339 47.8827 27.517 47.8686 27.6485 47.8476C27.7316 47.8476 27.884 47.8476 27.9809 47.8265C28.1263 47.8054 28.2509 47.8476 28.3963 47.8616C28.5279 47.8967 28.6387 47.8897 28.791 47.967C28.9226 48.0161 29.0126 48.0793 29.1511 48.1496C29.2342 48.1706 29.255 48.2479 29.3242 48.269C29.3727 48.3392 29.4211 48.3532 29.4835 48.4235C29.5735 48.5218 29.5873 48.6201 29.6219 48.7255C29.615 48.8379 29.6012 48.9502 29.4973 49.0345C29.4419 49.1188 29.2965 49.1539 29.1857 49.1609C29.0749 49.1679 28.9503 49.1398 28.8741 49.0345C28.8049 48.9502 28.7149 48.9221 28.6872 48.8449C28.5902 48.7887 28.5487 48.7255 28.4864 48.6974C28.424 48.6412 28.3617 48.6201 28.2648 48.5991C28.2025 48.585 28.1125 48.578 28.0086 48.5639C27.8909 48.5991 27.8147 48.5499 27.7247 48.6061C27.6208 48.6131 27.5447 48.6623 27.4823 48.7185C27.4131 48.8098 27.3854 48.873 27.3162 48.9151C27.2815 48.9643 27.2538 49.1118 27.2469 49.196C27.2331 49.3365 27.2331 49.4348 27.3092 49.5332C27.3369 49.6455 27.3992 49.7228 27.51 49.793C27.6278 49.8492 27.7108 49.8913 27.7939 49.9405C27.9255 50.0178 27.9947 50.0107 28.1055 50.0388C28.2025 50.102 28.2717 50.088 28.3548 50.1091C28.4517 50.1161 28.5279 50.2074 28.6664 50.2074C28.798 50.2285 28.8672 50.3127 28.9711 50.3338C29.0403 50.397 29.1442 50.4391 29.255 50.4953C29.3104 50.5726 29.4558 50.6147 29.5042 50.706C29.5735 50.7692 29.615 50.8816 29.6704 50.9448C29.7258 51.0642 29.7189 51.1134 29.7674 51.2047C29.7604 51.303 29.8297 51.4084 29.8228 51.4856C29.8366 51.605 29.8297 51.6612 29.8366 51.7665C29.8505 51.8508 29.8435 52.0124 29.8089 52.0826Z" fill="#004B88"/>
<path d="M31.6439 52.9254C31.637 53.0448 31.5954 53.1852 31.5054 53.2274C31.4431 53.3327 31.3184 53.3327 31.1938 53.3327C31.083 53.3678 30.9584 53.2765 30.8753 53.2274C30.7645 53.1923 30.7507 53.0658 30.7299 52.9254C30.716 52.8551 30.6953 52.7357 30.7299 52.6234C30.716 52.5461 30.716 52.4337 30.7299 52.3424C30.723 52.2301 30.7576 52.1388 30.7299 52.0545C30.7576 51.9632 30.716 51.8789 30.7299 51.7595C30.7022 51.6752 30.7437 51.5699 30.7299 51.4716C30.6953 51.4013 30.716 51.296 30.7299 51.1836C30.7437 51.0993 30.7507 51.008 30.7299 50.8957C30.7437 50.7903 30.7091 50.706 30.7299 50.6007C30.7507 50.5304 30.723 50.404 30.7299 50.3127C30.7022 50.2214 30.7576 50.1161 30.7299 50.0248C30.7507 49.8984 30.7576 49.8281 30.7299 49.7368C30.7576 49.6455 30.7507 49.5331 30.7299 49.4418C30.7091 49.3786 30.7437 49.2592 30.7299 49.1539C30.716 49.0485 30.716 48.9432 30.7299 48.8659C30.7368 48.7606 30.7022 48.6623 30.7299 48.578C30.7437 48.4656 30.6953 48.3673 30.7299 48.283C30.7368 48.1496 30.7922 48.0372 30.8753 47.981C30.9792 47.8967 31.0969 47.8405 31.1938 47.8686C31.3323 47.8967 31.4223 47.9108 31.5054 47.981C31.6023 48.0653 31.6023 48.1777 31.6439 48.283C31.6162 48.3954 31.6162 48.4867 31.6439 48.578C31.6716 48.6904 31.63 48.7887 31.6439 48.8659C31.6577 48.9432 31.6577 49.0977 31.6439 49.1539C31.6093 49.2733 31.6508 49.3646 31.6439 49.4418C31.6577 49.5331 31.637 49.6666 31.6439 49.7368C31.6647 49.8351 31.63 49.9335 31.6439 50.0248C31.6508 50.1091 31.637 50.2355 31.6439 50.3127C31.6577 50.4462 31.6162 50.5094 31.6439 50.6007C31.6093 50.706 31.6647 50.8184 31.6439 50.8957C31.6508 51.015 31.637 51.0712 31.6439 51.1836C31.637 51.2609 31.6093 51.4154 31.6439 51.4716C31.6716 51.5558 31.6439 51.6963 31.6439 51.7595C31.6162 51.8789 31.6231 51.9632 31.6439 52.0545C31.6093 52.1598 31.6716 52.2301 31.6439 52.3424C31.6716 52.4267 31.6577 52.525 31.6439 52.6304C31.6716 52.7568 31.637 52.827 31.6439 52.9254Z" fill="#004B88"/>
<path d="M37.1216 50.8675C37.1147 50.9588 37.087 51.0642 37.0939 51.1625C37.0454 51.2749 37.0731 51.3732 37.0316 51.4505C37.0177 51.5699 36.9693 51.6612 36.9485 51.7314C36.8792 51.8087 36.8793 51.9421 36.8377 51.9983C36.8169 52.0755 36.7477 52.1598 36.6923 52.2581C36.623 52.3495 36.5954 52.4478 36.5261 52.4899C36.4638 52.6023 36.3599 52.6585 36.3184 52.7076C36.263 52.7428 36.1937 52.82 36.1383 52.8621C36.0691 52.9183 35.986 52.9183 35.9445 52.9886C35.8821 53.0307 35.7852 53.0728 35.7437 53.0939C35.6467 53.1501 35.5844 53.1431 35.529 53.1782C35.349 53.2554 35.2174 53.2835 35.0789 53.2906C34.9404 53.3327 34.795 53.3467 34.615 53.3257C34.5181 53.3467 34.3727 53.3187 34.2619 53.3257C34.1165 53.3327 34.0541 53.3187 33.9087 53.3257C33.7356 53.3608 33.611 53.3327 33.4448 53.2835C33.3894 53.2765 33.2786 53.2625 33.2163 53.2063C33.1194 53.1782 33.0986 53.122 33.0363 53.0658C32.9601 52.9534 32.8701 52.8411 32.877 52.7287C32.8562 52.6444 32.8424 52.4548 32.8424 52.3565C32.8631 52.1879 32.8631 52.0755 32.8424 51.921C32.8147 51.7455 32.8147 51.619 32.8424 51.4856C32.8216 51.3732 32.8424 51.1625 32.8424 51.0431C32.8285 50.8816 32.8355 50.7411 32.8424 50.6007C32.8424 50.4883 32.8701 50.3408 32.8424 50.1582C32.8562 49.9826 32.8493 49.8983 32.8424 49.7228C32.8216 49.5753 32.8078 49.4489 32.8424 49.2803C32.8078 49.1398 32.8355 48.9783 32.8424 48.8449C32.8285 48.6974 32.8355 48.5499 32.8839 48.4445C32.9255 48.297 32.9462 48.1776 33.0778 48.0934C33.1609 48.0302 33.2163 47.981 33.2578 47.974C33.3132 47.9599 33.4171 47.9178 33.4725 47.9108C33.5971 47.9108 33.7841 47.8827 33.9087 47.8756C34.0472 47.8476 34.1718 47.8756 34.2619 47.8756C34.4142 47.8827 34.525 47.8686 34.6219 47.8756C34.7189 47.8476 34.7743 47.8756 34.885 47.8827C34.9958 47.8827 35.0305 47.9248 35.1482 47.9108C35.2105 47.9459 35.349 47.9529 35.4044 47.9669C35.4875 48.0231 35.5498 48.0372 35.6606 48.0372C35.709 48.0793 35.7921 48.1074 35.896 48.1355C35.9999 48.1917 36.0345 48.2338 36.1245 48.2689C36.2076 48.29 36.2838 48.4024 36.3392 48.4235C36.3669 48.5007 36.4776 48.5639 36.5261 48.6131C36.5884 48.6693 36.6369 48.7255 36.6923 48.8238C36.7338 48.894 36.7685 48.9432 36.8239 49.0485C36.8515 49.1539 36.8723 49.196 36.9277 49.2873C36.9623 49.3646 36.9762 49.4348 37.0108 49.5331C37.0316 49.6455 37.0454 49.7157 37.0662 49.793C37.1008 49.9124 37.1147 49.9615 37.1078 50.0529C37.1424 50.2144 37.1147 50.404 37.1354 50.5726C37.1493 50.6849 37.1354 50.7411 37.1216 50.8675ZM36.2145 50.9729C36.2561 50.8324 36.2491 50.699 36.2353 50.5726C36.2007 50.4391 36.2491 50.3127 36.2145 50.1442C36.2076 50.0318 36.166 49.8422 36.1314 49.7157C36.0899 49.5612 36.0068 49.484 35.9722 49.3295C35.9445 49.2522 35.9237 49.2101 35.8614 49.1539C35.8406 49.1047 35.7852 49.0556 35.716 48.9923C35.6606 48.9221 35.5567 48.901 35.4875 48.8238C35.4251 48.7887 35.3005 48.7536 35.2313 48.7184C35.1412 48.6693 35.0374 48.6903 34.9474 48.6552C34.8712 48.6763 34.7327 48.6342 34.6635 48.6342C34.4834 48.6271 34.3173 48.6482 34.1165 48.6342C33.9572 48.6201 33.8395 48.6552 33.7979 48.7184C33.7495 48.7957 33.7287 48.9221 33.7495 48.9853C33.7287 49.1188 33.7287 49.2662 33.7495 49.3856C33.7564 49.505 33.7218 49.6595 33.7495 49.793C33.7702 49.9124 33.7425 50.0809 33.7495 50.1933C33.7495 50.3548 33.7287 50.4742 33.7495 50.6007C33.7425 50.7411 33.7702 50.9027 33.7495 51.008C33.7495 51.1625 33.7564 51.2889 33.7495 51.4154C33.7356 51.5418 33.7356 51.6963 33.7495 51.8157C33.7702 51.9632 33.7564 52.0966 33.7495 52.216C33.7425 52.3354 33.7633 52.4197 33.8187 52.4969C33.881 52.5742 34.0195 52.5672 34.1165 52.5672C34.3242 52.5742 34.4834 52.5672 34.6635 52.5672C34.795 52.6023 34.8712 52.5601 34.982 52.5391C35.072 52.5461 35.1412 52.4969 35.2728 52.4478C35.3559 52.4197 35.4459 52.3565 35.5498 52.2933C35.626 52.223 35.7367 52.1598 35.7783 52.0826C35.896 51.9632 35.9375 51.8929 35.9999 51.7525C36.0276 51.6541 36.083 51.5067 36.1383 51.3732C36.1383 51.2538 36.2284 51.0923 36.2145 50.9729Z" fill="#004B88"/>
<path d="M41.5593 52.8902C41.5662 53.0237 41.5385 53.0939 41.4624 53.1571C41.3862 53.2063 41.3031 53.2414 41.2131 53.2695C41.0261 53.3046 40.8322 53.2976 40.6799 53.2695C40.4791 53.2835 40.2991 53.2765 40.1537 53.2695C40.0083 53.2835 39.7867 53.2835 39.6274 53.2695C39.4682 53.2484 39.2951 53.3046 39.1081 53.2695C38.9904 53.2765 38.8173 53.2625 38.6442 53.2344C38.5472 53.2414 38.4503 53.1922 38.4226 53.1501C38.3326 53.129 38.2703 53.0658 38.2356 53.0096C38.1179 52.9183 38.1318 52.7919 38.0764 52.6725C38.0695 52.525 38.0695 52.4267 38.0418 52.3003C38.0418 52.1598 38.021 52.0193 38.0418 51.8789C38.0141 51.7525 38.0556 51.619 38.0418 51.4575C38.0487 51.3381 38.0279 51.1976 38.0418 51.0291C38.0071 50.8746 38.0418 50.7762 38.0418 50.6007C38.0625 50.4461 38.0418 50.3057 38.0418 50.1793C38.021 50.0458 38.0487 49.9264 38.0418 49.7508C38.0418 49.6455 38.0071 49.491 38.0418 49.3294C38.0418 49.1679 38.0348 49.0134 38.0418 48.901C38.0556 48.7676 38.0279 48.6412 38.0833 48.5007C38.1387 48.3883 38.1664 48.2408 38.2772 48.1495C38.3395 48.1004 38.3672 48.0723 38.4572 48.0301C38.5057 48.0231 38.5888 47.9669 38.6719 47.9669C38.8311 47.9529 38.9904 47.9529 39.1081 47.9318C39.2812 47.9669 39.4474 47.9318 39.5859 47.9318C39.7244 47.9599 39.8767 47.9318 40.0637 47.9318C40.2437 47.9248 40.3475 47.9529 40.5414 47.9318C40.673 47.9529 40.8946 47.9459 41.0331 47.9388C41.1092 47.9459 41.2477 47.974 41.2823 48.0512C41.3239 48.1285 41.3793 48.2198 41.3793 48.3111C41.3793 48.4024 41.3723 48.5007 41.2823 48.578C41.2477 48.6482 41.1231 48.7044 41.0331 48.6903C40.8807 48.6833 40.7215 48.6622 40.5968 48.6903C40.4445 48.7184 40.2783 48.6763 40.1675 48.6903C40.029 48.6833 39.8698 48.6763 39.7382 48.6903C39.5928 48.7184 39.4474 48.7044 39.3089 48.6903C39.1773 48.6833 39.0527 48.7254 38.9904 48.7816C38.935 48.8448 38.9281 48.9432 38.9281 49.0485C38.9281 49.1117 38.935 49.2311 38.9419 49.3294C38.935 49.4488 38.9488 49.5261 38.9419 49.7087C38.935 49.8983 38.9419 49.9756 39.0112 50.0318C39.0942 50.095 39.1981 50.116 39.2535 50.102C39.4543 50.116 39.662 50.088 39.7728 50.102C39.9459 50.095 40.0706 50.095 40.2021 50.102C40.3683 50.1371 40.486 50.102 40.6384 50.109C40.7422 50.102 40.8322 50.1793 40.8876 50.2214C40.9638 50.3197 40.9846 50.3759 40.9846 50.4813C40.9915 50.6217 40.95 50.6568 40.8876 50.7481C40.7976 50.8535 40.7561 50.8675 40.6384 50.8605C40.486 50.8394 40.306 50.8956 40.2021 50.8605C40.0844 50.8465 39.9182 50.8886 39.7728 50.8605C39.6066 50.8816 39.4335 50.8675 39.2189 50.8605C39.0389 50.8746 38.9558 50.9167 38.9419 51.0361C38.9142 51.2468 38.9627 51.3873 38.9419 51.4996C38.9211 51.6331 38.9488 51.7454 38.9419 51.8297C38.9281 51.9702 38.935 52.0334 38.9419 52.1598C38.935 52.2511 38.9558 52.3635 39.0112 52.4407C39.0735 52.518 39.212 52.4969 39.3089 52.511C39.4335 52.532 39.6274 52.525 39.7798 52.511C39.9529 52.504 40.0913 52.5391 40.2575 52.511C40.4376 52.518 40.5553 52.518 40.7284 52.511C40.8946 52.4969 41.04 52.532 41.2131 52.518C41.3239 52.504 41.3793 52.5461 41.4624 52.6304C41.5385 52.6795 41.5524 52.7638 41.5593 52.8902Z" fill="#004B88"/>
</svg>
