<svg width="50" height="50" viewBox="0 0 50 50" fill="none" xmlns="http://www.w3.org/2000/svg">
<g clip-path="url(#clip0_703_708)">
<path d="M39.2699 0.101562H10.6492C4.82391 0.101562 0.101562 4.82391 0.101562 10.6492V39.2699C0.101562 45.0952 4.82391 49.8176 10.6492 49.8176H39.2699C45.0952 49.8176 49.8176 45.0952 49.8176 39.2699V10.6492C49.8176 4.82391 45.0952 0.101562 39.2699 0.101562Z" fill="white"/>
<path d="M14.1172 14.3711C18.2957 14.3711 24.0158 14.1581 28.1233 14.2696C33.6304 14.4116 35.7095 16.8153 35.7805 22.7382C35.8515 26.0952 35.7805 35.6895 35.7805 35.6895H29.817C29.817 27.2919 29.8474 25.9025 29.817 23.2554C29.746 20.9228 29.0868 19.8173 27.2916 19.6043C25.3951 19.3913 20.0807 19.5739 20.0807 19.5739V35.6997H14.1172V14.3711Z" fill="#040000"/>
<path d="M39.2699 0.101562H10.6492C4.82391 0.101562 0.101562 4.82391 0.101562 10.6492V39.2699C0.101562 45.0952 4.82391 49.8176 10.6492 49.8176H39.2699C45.0952 49.8176 49.8176 45.0952 49.8176 39.2699V10.6492C49.8176 4.82391 45.0952 0.101562 39.2699 0.101562Z" stroke="#EBEBEB" stroke-width="2"/>
</g>
<defs>
<clipPath id="clip0_703_708">
<rect width="50" height="50" fill="white"/>
</clipPath>
</defs>
</svg>
