<svg width="50" height="50" viewBox="0 0 50 50" fill="none" xmlns="http://www.w3.org/2000/svg">
<path d="M39.1684 0.101562H10.5477C4.72235 0.101562 0 4.82391 0 10.6492V39.2699C0 45.0952 4.72235 49.8176 10.5477 49.8176H39.1684C44.9937 49.8176 49.716 45.0952 49.716 39.2699V10.6492C49.716 4.82391 44.9937 0.101562 39.1684 0.101562Z" fill="#333333"/>
<g clip-path="url(#clip0_703_730)">
<path d="M27.8541 22.9821L39.0223 10H36.3758L26.6784 21.2722L18.9332 10H10L21.7123 27.0455L10 40.6593H12.6467L22.8873 28.7555L31.0668 40.6593H40L27.8534 22.9821H27.8541ZM24.2291 27.1957L23.0424 25.4984L13.6003 11.9924H17.6654L25.2853 22.8921L26.472 24.5895L36.377 38.7575H32.3119L24.2291 27.1964V27.1957Z" fill="white"/>
</g>
<defs>
<clipPath id="clip0_703_730">
<rect width="30" height="30.675" fill="white" transform="translate(10 10)"/>
</clipPath>
</defs>
</svg>
