<svg width="100" height="104" viewBox="0 0 100 104" fill="none" xmlns="http://www.w3.org/2000/svg">
<path d="M80.9985 39.9614C77.9459 37.2425 73.8296 39.6207 71.9394 42.4798C70.8165 44.1799 70.0756 46.1839 69.2424 48.0377C68.4554 48.1713 67.6651 48.2915 66.878 48.3884C63.9835 48.7491 61.0658 48.876 58.1515 48.8025C57.4238 48.7825 56.696 48.7524 55.9682 48.709C50.9299 48.8894 44.0146 50.5594 41.7094 47.5534C39.075 44.2133 47.9662 47.2193 50.9069 44.8613C51.1044 44.6609 51.3514 44.1097 51.4008 43.258C51.4996 42.9073 51.3514 41.9053 50.9069 41.6047C50.4623 41.3041 50.2153 41.0035 49.3756 40.9033C48.7335 40.6528 48.0913 40.8532 47.1034 40.8532C46.5107 41.0536 45.5722 40.8532 44.93 40.8532C44.3867 40.8031 43.3988 40.9033 42.2627 40.8532C40.7808 40.8031 40.682 40.2019 40.682 38.9994C40.7808 38.1477 40.2869 37.3962 39.7435 37.0956C39.1508 36.7449 38.6568 36.7449 38.0147 36.6948C37.4219 36.6447 36.3352 36.6447 36.0389 37.0956C35.3967 37.6467 35.1991 38.1477 35.1003 38.7489C35.2485 39.7008 35.0015 40.5526 35.1003 41.4043C35.1497 42.256 35.0509 43.0075 35.1003 43.9594C34.8534 45.0116 35.0509 45.713 35.1003 47.1024C34.7908 48.886 32.4857 49.5541 31.0499 48.3182C30.8523 47.8172 30.7042 47.6669 30.7042 46.5146C30.7042 45.6629 30.556 44.8613 30.6548 44.1097C30.5066 43.258 30.7041 42.9574 30.6548 42.256C30.7041 41.8051 30.1114 41.1037 29.7656 40.6528C29.2223 40.2019 28.6789 40.0515 27.938 40.1517C27.2465 39.9513 26.6043 40.2019 26.1104 40.6528C25.3201 41.1538 25.2707 41.755 25.2213 42.2059C25.2213 42.8572 25.2213 43.4584 25.2707 44.0095C25.4682 44.9114 25.1719 45.8633 25.3695 46.6649C25.567 47.4164 25.2707 47.9675 24.9743 48.3683C24.6779 49.0196 23.6406 49.0698 23.443 48.9695C22.2575 48.9695 21.1214 49.0196 20.3805 49.0196C19.5408 48.9194 19.195 49.3203 18.8493 49.7712C18.4047 50.0217 18.3059 50.7732 18.3553 51.4245C18.3059 52.1259 18.5035 52.8273 18.8493 53.0778C19.195 53.4286 19.7878 53.7793 20.3805 53.8294C20.9733 53.8795 21.7142 53.7793 22.5539 53.8795C23.0973 54.0298 23.7394 53.9797 24.6779 53.8795C25.3201 54.0799 26.308 53.9797 26.8019 53.8795C27.4441 53.8795 28.3826 53.7793 28.9259 53.8728C38.4131 52.5635 48.2922 52.5635 57.9539 53.8828C58.9353 53.9095 59.9166 53.9129 60.8979 53.8928C62.8605 53.8527 64.8199 53.7191 66.7759 53.4887C66.6014 53.8761 66.4269 54.2602 66.2524 54.6477C64.6322 58.2282 62.4489 62.1562 64.7112 65.9739C66.1404 68.3821 68.8835 69.5411 70.3423 71.8391C71.9328 74.3441 67.046 76.7256 65.6596 78.1251C62.3271 81.4885 62.4621 86.3751 65.0405 90.1794C66.3972 92.1801 68.2018 93.7366 69.901 95.4167C71.3104 96.8095 72.9207 98.5196 73.1249 100.617C73.2566 101.987 74.1853 103.166 75.6375 103.166C76.8954 103.166 78.2851 101.997 78.1501 100.617C77.8142 97.1501 76.0557 94.4246 73.6551 92.0131C71.5739 89.9189 68.3434 87.7044 68.0899 84.4545C67.8594 81.4819 71.7319 79.9955 73.4114 78.1451C75.4959 75.8538 76.4245 72.7743 75.0085 69.8684C73.9712 67.7408 71.9855 66.4114 70.3192 64.8416C69.6969 64.2571 68.9526 63.5857 68.7518 62.7106C68.3961 61.1742 69.7232 59.1468 70.3225 57.8208C71.103 56.0939 71.8768 54.3604 72.6507 52.6269C74.9426 52.1593 77.1786 51.4312 79.0128 50.0918C81.9502 47.9408 84.2948 42.8973 80.9985 39.9614ZM75.598 46.2908C76.0952 45.4224 76.655 44.731 77.419 43.9728C77.4355 43.9561 77.4552 43.9494 77.4816 43.9427C77.3729 44.3335 77.2939 44.7076 77.0238 45.075C76.6418 45.5894 76.1479 45.9802 75.6013 46.2908L75.598 46.2908Z" fill="#004B88"/>
<path d="M32.483 32.5931C32.483 34.1462 32.6311 35.2485 32.4336 36C32.5817 36.7014 32.0384 37.2024 31.6926 37.503C31.2481 37.7034 30.6059 38.1543 30.0626 38.004C29.2229 38.1543 28.9265 37.9038 28.4325 37.503C28.0868 37.1022 27.5928 36.8517 27.6422 36C27.7904 35.1984 27.6916 34.2464 27.6422 33.3446C27.6916 32.4929 27.6422 32.042 27.5434 31.8416C27.3952 31.5911 27.1976 31.6412 26.9507 31.8917C26.6049 32.2424 26.1603 32.8937 25.864 33.1442C25.2218 33.4949 24.8761 34.2965 24.3821 34.4468C23.987 34.9479 23.2954 35.0982 22.999 34.998C22.4063 34.7976 22.2087 34.8477 21.5666 34.3466C21.0726 33.9458 20.9244 33.6953 20.9738 32.8937C20.9738 32.3927 21.3196 31.3406 21.8136 30.9899C22.2087 30.1882 22.8015 30.088 23.3942 29.2864C23.987 28.9858 24.2339 28.2343 24.6785 27.8335C25.2712 27.4828 25.617 26.6812 26.0616 26.0299C26.2097 25.7793 26.2591 25.5789 26.2097 25.4286C26.0122 25.128 25.2712 25.0779 24.2833 25.0779C23.0978 24.9777 22.7027 24.7773 22.2087 24.4266C22.0111 24.2763 21.8136 23.7753 21.7148 23.0238C21.5666 21.9216 22.4063 21.1199 23.4436 20.9195C24.0857 20.8193 24.8267 20.9696 26.1603 20.8694C26.8519 20.7692 27.6422 20.4185 27.5928 19.0658C27.5928 17.9636 27.741 17.3624 28.4819 17.1119C29.1241 16.6609 29.4204 16.6609 30.0626 16.6108C30.359 16.6108 31.2975 16.9114 31.5938 17.1119C32.1372 17.3123 32.483 17.7131 32.4336 18.5648C32.4336 19.6169 32.6311 20.168 33.2239 20.5187C33.8166 20.8694 34.8539 20.8193 35.4467 20.8694C36.2864 20.9195 36.731 21.1199 37.0767 21.5709C37.3731 22.122 37.4225 22.2723 37.5707 23.0238C37.6695 23.4747 37.4719 24.0258 37.0767 24.4767C36.9285 24.627 36.3358 25.1781 35.5949 25.128C34.1624 25.0779 33.5697 25.1781 33.4215 25.5288C33.3721 25.629 33.4215 25.7793 33.4709 25.9297C34.1624 26.7313 34.7551 27.0319 35.1997 27.3325C35.6937 28.0339 36.0888 28.2343 36.5334 28.6852C36.9285 29.1862 36.9285 29.7373 37.0767 30.088C36.6322 31.1903 36.0394 31.9418 35.1997 32.042C34.7057 32.2925 33.866 31.7414 33.3721 31.2404C32.6805 30.7895 32.3842 31.0901 32.483 32.5931Z" fill="#004B88"/>
<path d="M57.031 32.0921C57.1792 33.1943 57.1792 33.8456 56.5864 34.2965C56.3395 34.7976 55.4997 35.1984 55.0058 35.0481C54.1167 35.2485 53.1782 34.5971 52.6348 33.7955C52.1408 33.3446 52.0421 32.9939 51.5481 32.7935C51.1035 32.3927 50.8072 32.042 50.5108 31.7915C49.6711 30.9398 49.4241 31.0901 49.1277 31.4909C48.8314 31.6913 49.0289 33.0941 48.9301 33.7454C48.782 34.6472 48.9795 35.1483 48.8808 35.7996C48.782 36.6513 48.3374 37.002 48.1398 37.3026C47.5965 37.7034 47.0037 37.8036 46.5098 37.8036C46.1146 37.7535 45.4231 37.5531 44.8797 37.3026C44.6328 37.2024 44.0894 36.4509 44.0894 35.7996C44.287 35.1483 44.1882 34.0961 44.1882 33.3446C44.1882 31.5911 44.287 31.1402 43.9412 31.04C43.5955 30.9398 43.3979 31.2404 42.6569 32.042C42.1136 32.3426 42.0148 32.7434 41.7184 33.0941C41.3727 33.5951 40.6811 34.0961 39.9402 34.6974C39.2487 35.1984 38.9029 35.2986 38.3101 35.3487C37.5198 35.499 37.2234 35.0481 36.8283 34.6974C36.2849 34.2464 36.2355 33.7454 36.1861 33.2444C36.0874 32.4428 36.8777 31.5911 37.5692 30.9899C38.0138 30.3887 38.6559 30.2885 39.0511 29.587C39.2981 28.8856 40.0884 28.8355 40.4835 28.084C40.7799 27.7834 41.5702 26.9818 42.1136 26.1301C42.41 25.8295 42.4594 25.5789 42.2618 25.4286C42.0642 25.2282 41.5702 25.128 40.7305 25.128C39.9896 25.128 39.1993 25.0779 38.8041 24.4266C38.3101 23.8254 38.4089 23.4747 38.3595 23.0238C38.2607 21.8715 39.1005 20.7191 40.0884 20.9195C40.6317 20.7692 41.4221 20.8193 42.6569 20.8694C43.9412 20.8193 44.0894 20.3183 44.0894 18.5648C44.2376 17.5628 44.3858 17.5127 44.9291 17.1119C45.5219 16.9114 45.6207 16.6609 46.5098 16.6108C46.8062 16.6108 47.4977 16.8613 48.041 17.1119C48.6338 17.2121 48.7326 17.7131 48.8808 18.5648C48.8808 19.4165 48.7326 20.0678 49.2759 20.5688C49.4735 20.9195 50.2638 20.9696 50.659 20.8694C51.9433 21.1199 52.9806 20.669 53.8203 20.9195C54.907 20.9195 55.4997 21.8715 55.4997 23.0238C55.4009 24.3264 54.7588 25.0779 53.8203 25.128C52.1902 25.0278 51.3505 25.2282 51.1035 25.629C50.8072 26.08 51.1035 26.4307 52.3878 27.6331C53.03 27.9838 53.3263 28.6351 53.8203 28.8856C54.3142 29.4868 54.7094 29.7874 55.3515 30.1381C55.8949 30.7394 56.6358 31.0901 57.031 32.0921Z" fill="#004B88"/>
<path d="M48.4896 98.3756C29.5646 98.9034 11.499 87.0761 4.02388 69.3871C-3.86621 51.5143 0.10518 29.393 13.6724 15.3881C40.0759 -12.2978 85.8687 -0.868078 97.5194 35.6256C99.0737 40.4888 99.9036 45.6024 99.9991 50.7261C100.052 53.515 97.8652 55.8197 95.1122 55.8731C92.2901 55.9333 89.9685 53.5718 90.0377 50.7094C90.7621 29.039 73.948 9.69992 52.7047 7.34851C30.7863 4.4393 9.5364 19.9406 4.97886 41.925C-0.105574 64.701 13.2904 88.0114 35.1989 95.1491C37.3328 95.8639 39.5326 96.3783 41.7521 96.7824C43.9781 97.1632 46.2306 97.3536 48.4929 97.4304C49.0922 97.4304 49.112 98.3623 48.4929 98.3756L48.4896 98.3756Z" fill="#004B88"/>
<path d="M20.5069 74.3036C20.497 74.474 20.4377 74.6744 20.3093 74.7345C20.2204 74.8848 20.0425 74.8848 19.8647 74.8848C19.7066 74.9349 19.5288 74.8046 19.4103 74.7345C19.2522 74.6844 19.2325 74.504 19.2028 74.3036C19.1831 74.2034 19.1534 74.0331 19.2028 73.8727C19.1831 73.7625 19.1831 73.6022 19.2028 73.4719C19.1929 73.3116 19.2423 73.1813 19.2028 73.0611C19.2423 72.9308 19.1831 72.8106 19.2028 72.6402C19.1633 72.52 19.2226 72.3697 19.2028 72.2294C19.1534 72.1292 19.1831 71.9789 19.2028 71.8186C19.2226 71.6983 19.2325 71.5681 19.2028 71.4078C19.2226 71.2575 19.1732 71.1372 19.2028 70.9869C19.2325 70.8867 19.1929 70.7063 19.2028 70.5761C19.1633 70.4458 19.2423 70.2955 19.2028 70.1653C19.2325 69.9849 19.2423 69.8847 19.2028 69.7544C19.2423 69.6242 19.2325 69.4638 19.2028 69.3336C19.1732 69.2434 19.2226 69.073 19.2028 68.9227C19.1831 68.7724 19.1831 68.6221 19.2028 68.5119C19.2127 68.3616 19.1633 68.2213 19.2028 68.1011C19.2226 67.9408 19.1534 67.8005 19.2028 67.6802C19.2127 67.4899 19.2917 67.3295 19.4103 67.2494C19.5585 67.1291 19.7264 67.049 19.8647 67.089C20.0623 67.1291 20.1907 67.1492 20.3093 67.2494C20.4476 67.3696 20.4476 67.5299 20.5069 67.6802C20.4673 67.8406 20.4673 67.9708 20.5069 68.1011C20.5464 68.2614 20.4871 68.4017 20.5069 68.5119C20.5266 68.6221 20.5266 68.8426 20.5069 68.9227C20.4575 69.0931 20.5167 69.2233 20.5069 69.3336C20.5266 69.4638 20.497 69.6542 20.5069 69.7544C20.5365 69.8947 20.4871 70.035 20.5069 70.1653C20.5167 70.2855 20.497 70.4659 20.5069 70.5761C20.5266 70.7665 20.4673 70.8566 20.5069 70.9869C20.4575 71.1372 20.5365 71.2975 20.5069 71.4078C20.5167 71.5781 20.497 71.6583 20.5069 71.8186C20.497 71.9288 20.4575 72.1493 20.5069 72.2294C20.5464 72.3497 20.5069 72.5501 20.5069 72.6402C20.4673 72.8106 20.4772 72.9308 20.5069 73.0611C20.4575 73.2114 20.5464 73.3116 20.5069 73.4719C20.5464 73.5922 20.5266 73.7324 20.5069 73.8828C20.5464 74.0631 20.497 74.1633 20.5069 74.3036Z" fill="#004B88"/>
<path d="M27.8062 73.9129C27.7667 74.0932 27.8062 74.2135 27.7469 74.3237C27.6975 74.454 27.6383 74.6243 27.5197 74.6844C27.3913 74.8147 27.1838 74.8548 26.9369 74.8949C26.7985 74.8748 26.5911 74.8548 26.5022 74.8247C26.3836 74.8247 26.2453 74.6744 26.1465 74.5842C26.0379 74.464 25.9489 74.3337 25.8996 74.2436C25.8403 74.1033 25.7415 73.973 25.7217 73.8728C25.6625 73.7125 25.5637 73.5722 25.5241 73.4119C25.4155 73.2816 25.4155 73.1413 25.3266 72.9509C25.2673 72.8307 25.1685 72.6804 25.129 72.49C25.0104 72.3197 24.9907 72.2195 24.9215 72.0291C24.8919 71.8487 24.7931 71.6984 24.7239 71.5682C24.6251 71.4279 24.5955 71.2976 24.5264 71.0972C24.4572 70.997 24.3387 70.8267 24.3288 70.6363C24.2596 70.4659 24.1806 70.2856 24.1213 70.1753C24.0126 70.0551 23.9633 69.8747 23.9237 69.7044C23.8151 69.5641 23.8151 69.3637 23.7459 69.2234C23.6965 69.1232 23.6965 69.0631 23.6175 68.9328C23.5681 68.8527 23.4199 68.8427 23.4199 68.9829C23.4199 69.1232 23.3903 69.1934 23.41 69.3036C23.4298 69.4138 23.4001 69.524 23.41 69.6342C23.4397 69.8246 23.3804 69.9148 23.4199 70.0551C23.3804 70.2054 23.4594 70.3657 23.4298 70.4759C23.3804 70.6363 23.4199 70.7766 23.4298 70.9569C23.4397 71.0972 23.4594 71.2675 23.4298 71.4379C23.4594 71.6082 23.4495 71.7786 23.4298 71.9189C23.4298 72.0491 23.4199 72.2495 23.4298 72.3998C23.4199 72.5802 23.3903 72.6804 23.4298 72.8808C23.4397 73.0411 23.3903 73.2115 23.4298 73.3618C23.4001 73.5522 23.41 73.6624 23.4298 73.8427C23.4495 74.0331 23.4298 74.1333 23.4298 74.3438C23.4594 74.5241 23.3804 74.6343 23.2421 74.7446C23.1137 74.8848 23.0149 74.9049 22.8272 74.8949C22.6296 74.9049 22.5505 74.8347 22.4024 74.7446C22.3233 74.6043 22.2641 74.5141 22.2245 74.3438C22.2443 74.0933 22.2245 73.8227 22.2147 73.5421C22.2443 73.2515 22.2443 73.0311 22.2147 72.7606C22.1751 72.46 22.1751 72.2295 22.2147 71.979C22.185 71.7686 22.2147 71.4179 22.2147 71.1874C22.1949 70.9068 22.2048 70.6563 22.2147 70.4058C22.2147 70.1954 22.2542 69.9349 22.2147 69.6242C22.2344 69.3236 22.2245 69.1433 22.2147 68.8427C22.185 68.5821 22.1653 68.3517 22.2147 68.0611C22.2344 67.9108 22.2048 67.7905 22.2739 67.6502C22.3431 67.5601 22.3727 67.3997 22.4814 67.3096C22.5209 67.2595 22.6493 67.1993 22.7679 67.1492C22.8963 67.1292 23.0149 67.1292 23.0939 67.0991C23.3112 67.1092 23.4298 67.1492 23.6076 67.1793C23.7262 67.2494 23.9237 67.3296 24.0324 67.4599C24.1114 67.5801 24.1905 67.6803 24.2695 67.7905C24.3288 67.8907 24.4374 68.021 24.4473 68.1513C24.4868 68.3016 24.5955 68.4118 24.6153 68.5521C24.6449 68.6823 24.7042 68.8427 24.7931 68.9629C24.8622 69.0731 24.8622 69.2334 24.961 69.3637C25.0499 69.4839 25.0697 69.6643 25.1389 69.7745C25.1981 69.9349 25.2278 70.0551 25.3068 70.1753C25.3562 70.3256 25.455 70.486 25.4846 70.5862C25.5439 70.7565 25.6427 70.9068 25.6625 70.997C25.6921 71.1172 25.7514 71.2876 25.8304 71.3978C25.9094 71.5982 25.9489 71.6984 26.028 71.8788C26.0774 72.009 26.107 72.2495 26.2157 72.3598C26.3145 72.5 26.2947 72.5902 26.354 72.7205C26.3935 72.8006 26.4034 72.9309 26.4528 73.001C26.4923 73.0511 26.5911 73.0511 26.6108 72.971C26.6207 72.9109 26.6306 72.7906 26.6306 72.7205C26.6207 72.5602 26.6405 72.4199 26.6108 72.2495C26.6504 72.1193 26.6207 71.8988 26.6306 71.7185C26.601 71.5782 26.6405 71.3878 26.6306 71.1874C26.6306 71.0571 26.6405 70.9068 26.601 70.7465C26.5911 70.6563 26.6207 70.496 26.601 70.3056C26.5911 70.1753 26.601 70.005 26.601 69.8747C26.601 69.7445 26.5812 69.5942 26.601 69.4238C26.6207 69.2535 26.6207 69.1833 26.601 68.9829C26.5516 68.8727 26.601 68.7124 26.5911 68.542C26.6108 68.3917 26.5812 68.2915 26.5911 68.1112C26.6207 67.9609 26.5713 67.8106 26.601 67.6502C26.5812 67.53 26.6207 67.3697 26.7788 67.2494C26.8875 67.1492 27.0455 67.0791 27.2036 67.0991C27.3913 67.1492 27.5197 67.1492 27.6284 67.2494C27.7469 67.3797 27.7667 67.52 27.8062 67.6502C27.7667 67.7605 27.8062 67.9609 27.8062 68.0511C27.826 68.2114 27.7667 68.3617 27.8062 68.4418C27.7963 68.6923 27.7865 68.9228 27.8062 69.2234C27.7963 69.524 27.7667 69.7244 27.8062 70.005C27.8161 70.2555 27.7963 70.506 27.8062 70.7866C27.8062 71.0872 27.7963 71.3277 27.8062 71.5682C27.826 71.8788 27.8358 72.0892 27.8062 72.3497C27.8161 72.5702 27.7667 72.8708 27.8062 73.1313C27.8358 73.3818 27.7568 73.6824 27.8062 73.9129Z" fill="#004B88"/>
<path d="M33.8834 71.0365C33.8933 71.2269 33.8538 71.277 33.8044 71.4273C33.7155 71.5977 33.6957 71.6778 33.5871 71.758C33.4981 71.8382 33.3994 71.9684 33.2709 71.9784C33.1623 72.0786 33.0141 72.0586 32.8758 72.0586C32.7078 72.0987 32.6288 72.0386 32.4905 71.9784C32.3522 71.9083 32.2435 71.8181 32.1645 71.758C32.0854 71.6378 31.957 71.5275 31.9471 71.4273C31.9175 71.2871 31.8187 71.1568 31.8681 71.0365C31.8977 70.9263 31.8879 70.756 31.9471 70.6357C31.957 70.5255 32.1151 70.3953 32.1645 70.3151C32.2929 70.1848 32.4114 70.1447 32.4905 70.0946C32.6485 70.0546 32.7671 70.0045 32.8758 70.0145C33.0338 70.0546 33.1227 70.0345 33.261 70.0946C33.3994 70.1548 33.4487 70.255 33.5871 70.3151C33.676 70.4053 33.755 70.4955 33.8044 70.6458C33.8834 70.746 33.9131 70.8562 33.8834 71.0365Z" fill="#004B88"/>
<path d="M42.5272 73.101C42.4481 73.2714 42.4679 73.4016 42.4086 73.5219C42.3691 73.6521 42.2802 73.8325 42.211 73.9127C42.1617 74.053 42.0135 74.1632 41.9344 74.2634C41.7665 74.4237 41.7072 74.5039 41.5195 74.584C41.3614 74.7243 41.1836 74.7844 41.0552 74.8045C40.8576 74.8746 40.6897 74.9147 40.5612 74.9247C40.4229 74.9748 40.1957 74.9848 40.0475 74.9648C39.8499 74.9548 39.5338 74.9748 39.356 74.9047C39.2276 74.8947 39.1584 74.9047 39.0201 74.8245C38.9016 74.8245 38.8324 74.8145 38.6941 74.7143C38.5657 74.6642 38.457 74.6441 38.378 74.564C38.3088 74.5339 38.1903 74.4738 38.0915 74.3836C38.0322 74.2834 37.9433 74.2433 37.8247 74.1532C37.7062 74.0329 37.637 73.9728 37.5876 73.8826C37.5086 73.7523 37.4296 73.5519 37.4197 73.4217C37.4098 73.3115 37.4987 73.091 37.6173 73.0209C37.6864 72.9708 37.9038 72.8806 38.0322 72.8605C38.2001 72.8605 38.3681 72.9107 38.4669 73.061C38.5755 73.1511 38.6249 73.2714 38.7632 73.3916C38.8818 73.4718 38.9213 73.562 39.0893 73.6521C39.2078 73.7924 39.4054 73.8225 39.5536 73.8526C39.7018 73.8626 39.8796 73.8726 40.0673 73.9026C40.2747 73.8626 40.4723 73.8726 40.6008 73.8125C40.8082 73.7624 40.9465 73.6521 41.0354 73.5219C41.1737 73.4317 41.2034 73.2614 41.2627 73.1311C41.2725 72.9908 41.3713 72.8104 41.3318 72.6702C41.3516 72.5098 41.3219 72.3595 41.2231 72.1892C41.1737 72.0389 41.0256 71.9387 40.907 71.8285C40.7391 71.7483 40.66 71.6681 40.502 71.608C40.3044 71.578 40.176 71.5178 40.0475 71.4577C39.929 71.4176 39.8203 71.4277 39.6919 71.3575C39.5733 71.3074 39.4251 71.2673 39.3066 71.2373C39.1782 71.2373 39.0399 71.1671 38.9213 71.087C38.8225 71.0769 38.704 70.9667 38.5558 70.8966C38.457 70.7763 38.2989 70.7363 38.2397 70.6461C38.1211 70.586 37.9828 70.4557 37.9532 70.2954C37.884 70.1551 37.8149 70.0048 37.7753 69.9046C37.7161 69.7643 37.6766 69.594 37.6766 69.4837C37.6469 69.3835 37.6074 69.1731 37.6469 69.0428C37.6568 68.9426 37.637 68.8324 37.6766 68.6621C37.6469 68.5218 37.7358 68.4617 37.7753 68.3114C37.8544 68.1711 37.8741 68.0609 37.9433 67.9707C37.9828 67.8805 38.0915 67.8104 38.1705 67.6701C38.2594 67.5799 38.3977 67.4396 38.5558 67.3695C38.7139 67.3093 38.8324 67.1891 38.9806 67.1791C39.1387 67.1089 39.2572 67.0889 39.4449 67.0588C39.5635 67.0588 39.7808 67.0588 39.9191 67.0288C40.1266 66.9987 40.3044 67.0588 40.5118 67.0789C40.6995 67.129 40.8576 67.119 41.075 67.2292C41.2627 67.2993 41.3911 67.3895 41.5887 67.4897C41.7072 67.5198 41.7369 67.63 41.8356 67.6601C41.9048 67.7603 41.9739 67.7803 42.0629 67.8805C42.1913 68.0208 42.211 68.1611 42.2604 68.3114C42.2506 68.4717 42.2308 68.632 42.0826 68.7523C42.0036 68.8725 41.7961 68.9226 41.6381 68.9326C41.48 68.9426 41.3022 68.9026 41.1935 68.7523C41.0947 68.632 40.9663 68.5919 40.9268 68.4817C40.7885 68.4015 40.7292 68.3114 40.6403 68.2713C40.5514 68.1911 40.4624 68.1611 40.3241 68.131C40.2352 68.111 40.1068 68.1009 39.9586 68.0809C39.7907 68.131 39.682 68.0609 39.5536 68.141C39.4054 68.151 39.2967 68.2212 39.2078 68.3013C39.109 68.4316 39.0695 68.5218 38.9707 68.5819C38.9213 68.6521 38.8818 68.8625 38.8719 68.9827C38.8522 69.1831 38.8522 69.3234 38.9608 69.4637C39.0003 69.624 39.0893 69.7342 39.2473 69.8344C39.4153 69.9146 39.5338 69.9747 39.6524 70.0449C39.8401 70.1551 39.9389 70.1451 40.0969 70.1851C40.2352 70.2753 40.334 70.2553 40.4526 70.2853C40.5909 70.2954 40.6995 70.4256 40.8971 70.4256C41.0848 70.4557 41.1836 70.5759 41.3318 70.606C41.4306 70.6962 41.5788 70.7563 41.7368 70.8365C41.8159 70.9467 42.0233 71.0068 42.0925 71.1371C42.1913 71.2272 42.2506 71.3876 42.3296 71.4778C42.4086 71.6481 42.3987 71.7182 42.4679 71.8485C42.458 71.9888 42.5568 72.1391 42.5469 72.2493C42.5667 72.4197 42.5568 72.4998 42.5667 72.6501C42.5865 72.7704 42.5766 73.0008 42.5272 73.101Z" fill="#004B88"/>
<path d="M45.1465 74.3036C45.1366 74.474 45.0773 74.6744 44.9489 74.7345C44.86 74.8848 44.6822 74.8848 44.5044 74.8848C44.3463 74.9349 44.1685 74.8046 44.0499 74.7345C43.8919 74.6844 43.8721 74.504 43.8425 74.3036C43.8227 74.2034 43.7931 74.0331 43.8425 73.8727C43.8227 73.7625 43.8227 73.6022 43.8425 73.4719C43.8326 73.3116 43.882 73.1813 43.8425 73.0611C43.882 72.9308 43.8227 72.8106 43.8425 72.6402C43.8029 72.52 43.8622 72.3697 43.8425 72.2294C43.7931 72.1292 43.8227 71.9789 43.8425 71.8186C43.8622 71.6983 43.8721 71.5681 43.8425 71.4078C43.8622 71.2575 43.8128 71.1372 43.8425 70.9869C43.8721 70.8867 43.8326 70.7063 43.8425 70.5761C43.8029 70.4458 43.882 70.2955 43.8425 70.1653C43.8721 69.9849 43.882 69.8847 43.8425 69.7544C43.882 69.6242 43.8721 69.4638 43.8425 69.3336C43.8128 69.2434 43.8622 69.073 43.8425 68.9227C43.8227 68.7724 43.8227 68.6221 43.8425 68.5119C43.8523 68.3616 43.8029 68.2213 43.8425 68.1011C43.8622 67.9408 43.7931 67.8005 43.8425 67.6802C43.8523 67.4899 43.9314 67.3295 44.0499 67.2494C44.1981 67.1291 44.3661 67.049 44.5044 67.089C44.7019 67.1291 44.8304 67.1492 44.9489 67.2494C45.0872 67.3696 45.0872 67.5299 45.1465 67.6802C45.107 67.8406 45.107 67.9708 45.1465 68.1011C45.186 68.2614 45.1267 68.4017 45.1465 68.5119C45.1663 68.6221 45.1663 68.8426 45.1465 68.9227C45.0971 69.0931 45.1564 69.2233 45.1465 69.3336C45.1663 69.4638 45.1366 69.6542 45.1465 69.7544C45.1761 69.8947 45.1267 70.035 45.1465 70.1653C45.1564 70.2855 45.1366 70.4659 45.1465 70.5761C45.1663 70.7665 45.107 70.8566 45.1465 70.9869C45.0971 71.1372 45.1761 71.2975 45.1465 71.4078C45.1564 71.5781 45.1366 71.6583 45.1465 71.8186C45.1366 71.9288 45.0971 72.1493 45.1465 72.2294C45.186 72.3497 45.1465 72.5501 45.1465 72.6402C45.107 72.8106 45.1169 72.9308 45.1465 73.0611C45.0971 73.2114 45.186 73.3116 45.1465 73.4719C45.186 73.5922 45.1663 73.7324 45.1465 73.8828C45.186 74.0631 45.1366 74.1633 45.1465 74.3036Z" fill="#004B88"/>
<path d="M52.9606 71.3675C52.9507 71.4977 52.9112 71.648 52.921 71.7883C52.8519 71.9487 52.8914 72.0889 52.8321 72.1992C52.8124 72.3695 52.7432 72.4998 52.7136 72.6C52.6148 72.7102 52.6148 72.9006 52.5555 72.9807C52.5259 73.091 52.4271 73.2112 52.348 73.3515C52.2493 73.4818 52.2097 73.622 52.111 73.6822C52.022 73.8425 51.8739 73.9226 51.8146 73.9928C51.7355 74.0429 51.6368 74.1531 51.5577 74.2132C51.4589 74.2934 51.3404 74.2934 51.2811 74.3936C51.1922 74.4537 51.0539 74.5138 50.9946 74.5439C50.8563 74.6241 50.7674 74.614 50.6884 74.6641C50.4315 74.7744 50.2438 74.8144 50.0462 74.8245C49.8486 74.8846 49.6412 74.9046 49.3843 74.8746C49.246 74.9046 49.0386 74.8645 48.8805 74.8746C48.673 74.8846 48.5841 74.8645 48.3767 74.8746C48.1297 74.9247 47.9519 74.8846 47.7148 74.8144C47.6357 74.8044 47.4777 74.7844 47.3888 74.7042C47.2504 74.6641 47.2208 74.584 47.1319 74.5038C47.0232 74.3435 46.8948 74.1832 46.9047 74.0228C46.875 73.9026 46.8553 73.6321 46.8553 73.4918C46.8849 73.2513 46.8849 73.091 46.8553 72.8705C46.8158 72.62 46.8158 72.4396 46.8553 72.2493C46.8256 72.0889 46.8553 71.7883 46.8553 71.618C46.8355 71.3875 46.8454 71.1871 46.8553 70.9867C46.8553 70.8264 46.8948 70.616 46.8553 70.3554C46.875 70.1049 46.8652 69.9847 46.8553 69.7342C46.8256 69.5238 46.8059 69.3434 46.8553 69.1029C46.8059 68.9025 46.8454 68.672 46.8553 68.4817C46.8355 68.2712 46.8454 68.0608 46.9146 67.9105C46.9738 67.7001 47.0035 67.5297 47.1912 67.4095C47.3097 67.3193 47.3888 67.2492 47.448 67.2392C47.5271 67.2191 47.6752 67.159 47.7543 67.149C47.9321 67.149 48.1988 67.1089 48.3767 67.0989C48.5742 67.0588 48.7521 67.0989 48.8805 67.0989C49.0978 67.1089 49.2559 67.0888 49.3942 67.0989C49.5325 67.0588 49.6115 67.0989 49.7696 67.1089C49.9277 67.1089 49.9771 67.169 50.145 67.149C50.2339 67.1991 50.4315 67.2091 50.5105 67.2291C50.6291 67.3093 50.718 67.3293 50.8761 67.3293C50.9452 67.3895 51.0638 67.4295 51.212 67.4696C51.3601 67.5498 51.4095 67.6099 51.538 67.66C51.6565 67.6901 51.7652 67.8504 51.8442 67.8804C51.8837 67.9907 52.0418 68.0808 52.111 68.151C52.1999 68.2312 52.269 68.3113 52.348 68.4516C52.4073 68.5518 52.4567 68.6219 52.5357 68.7722C52.5753 68.9225 52.6049 68.9827 52.6839 69.1129C52.7333 69.2232 52.7531 69.3234 52.8025 69.4636C52.8321 69.624 52.8519 69.7242 52.8815 69.8344C52.9309 70.0047 52.9507 70.0749 52.9408 70.2051C52.9902 70.4356 52.9507 70.7062 52.9803 70.9466C53.0001 71.107 52.9803 71.1871 52.9606 71.3675ZM51.6664 71.5178C51.7257 71.3174 51.7158 71.127 51.696 70.9466C51.6466 70.7563 51.7158 70.5759 51.6664 70.3354C51.6565 70.1751 51.5972 69.9045 51.5478 69.7242C51.4886 69.5037 51.37 69.3935 51.3206 69.1731C51.2811 69.0628 51.2515 69.0027 51.1626 68.9226C51.1329 68.8524 51.0539 68.7823 50.9551 68.6921C50.8761 68.5919 50.7279 68.5618 50.6291 68.4516C50.5402 68.4015 50.3624 68.3514 50.2636 68.3013C50.1351 68.2312 49.987 68.2612 49.8585 68.2111C49.7499 68.2412 49.5523 68.1811 49.4535 68.1811C49.1966 68.171 48.9595 68.2011 48.673 68.1811C48.4458 68.161 48.2779 68.2111 48.2186 68.3013C48.1494 68.4115 48.1198 68.5919 48.1494 68.6821C48.1198 68.8725 48.1198 69.0829 48.1494 69.2532C48.1593 69.4236 48.1099 69.644 48.1494 69.8344C48.1791 70.0047 48.1396 70.2452 48.1494 70.4055C48.1494 70.636 48.1198 70.8064 48.1494 70.9867C48.1396 71.1871 48.1791 71.4176 48.1494 71.5679C48.1494 71.7883 48.1593 71.9687 48.1494 72.1491C48.1297 72.3294 48.1297 72.5499 48.1494 72.7202C48.1791 72.9306 48.1593 73.121 48.1494 73.2914C48.1396 73.4617 48.1692 73.582 48.2482 73.6922C48.3371 73.8024 48.5347 73.7924 48.673 73.7924C48.9694 73.8024 49.1966 73.7924 49.4535 73.7924C49.6412 73.8425 49.7499 73.7824 49.9079 73.7523C50.0363 73.7623 50.1351 73.6922 50.3228 73.622C50.4414 73.582 50.5698 73.4918 50.718 73.4016C50.8267 73.3014 50.9847 73.2112 51.044 73.101C51.212 72.9306 51.2712 72.8304 51.3601 72.63C51.3997 72.4898 51.4787 72.2793 51.5577 72.0889C51.5577 71.9186 51.6861 71.6881 51.6664 71.5178Z" fill="#004B88"/>
<path d="M59.2925 74.2532C59.3024 74.4436 59.2628 74.5438 59.1542 74.6339C59.0455 74.7041 58.9269 74.7542 58.7985 74.7943C58.5318 74.8444 58.2552 74.8343 58.0378 74.7943C57.7513 74.8143 57.4945 74.8043 57.287 74.7943C57.0796 74.8143 56.7634 74.8143 56.5362 74.7943C56.309 74.7642 56.062 74.8444 55.7953 74.7943C55.6273 74.8043 55.3804 74.7842 55.1334 74.7442C54.9951 74.7542 54.8568 74.684 54.8173 74.6239C54.6888 74.5939 54.5999 74.5037 54.5505 74.4235C54.3826 74.2933 54.4023 74.1129 54.3233 73.9426C54.3134 73.7321 54.3134 73.5918 54.2739 73.4115C54.2739 73.2111 54.2443 73.0107 54.2739 72.8103C54.2344 72.6299 54.2937 72.4395 54.2739 72.2091C54.2838 72.0387 54.2541 71.8383 54.2739 71.5978C54.2245 71.3774 54.2739 71.2371 54.2739 70.9866C54.3035 70.7661 54.2739 70.5657 54.2739 70.3854C54.2443 70.195 54.2838 70.0246 54.2739 69.7741C54.2739 69.6238 54.2245 69.4034 54.2739 69.1729C54.2739 68.9425 54.264 68.722 54.2739 68.5617C54.2937 68.3713 54.2541 68.1909 54.3332 67.9905C54.4122 67.8302 54.4517 67.6198 54.6098 67.4895C54.6987 67.4194 54.7382 67.3793 54.8666 67.3192C54.9358 67.3092 55.0544 67.229 55.1729 67.229C55.4001 67.209 55.6273 67.209 55.7953 67.1789C56.0423 67.229 56.2794 67.1789 56.4769 67.1789C56.6745 67.219 56.8919 67.1789 57.1586 67.1789C57.4154 67.1689 57.5636 67.209 57.8402 67.1789C58.0279 67.209 58.3441 67.1989 58.5417 67.1889C58.6503 67.1989 58.8479 67.239 58.8973 67.3492C58.9566 67.4595 59.0356 67.5897 59.0356 67.72C59.0356 67.8503 59.0257 67.9905 58.8973 68.1008C58.8479 68.201 58.6701 68.2811 58.5417 68.2611C58.3243 68.2511 58.0971 68.221 57.9193 68.2611C57.7019 68.3012 57.4648 68.241 57.3068 68.2611C57.1092 68.2511 56.882 68.241 56.6943 68.2611C56.4868 68.3012 56.2794 68.2811 56.0818 68.2611C55.8941 68.2511 55.7162 68.3112 55.6273 68.3913C55.5483 68.4815 55.5384 68.6218 55.5384 68.7721C55.5384 68.8623 55.5483 69.0326 55.5582 69.1729C55.5483 69.3433 55.5681 69.4535 55.5582 69.714C55.5483 69.9846 55.5582 70.0948 55.657 70.1749C55.7755 70.2651 55.9237 70.2952 56.0027 70.2751C56.2892 70.2952 56.5856 70.2551 56.7437 70.2751C56.9907 70.2651 57.1685 70.2651 57.3562 70.2751C57.5933 70.3252 57.7612 70.2751 57.9786 70.2852C58.1267 70.2751 58.2552 70.3854 58.3342 70.4455C58.4429 70.5858 58.4725 70.6659 58.4725 70.8162C58.4824 71.0166 58.4231 71.0667 58.3342 71.197C58.2058 71.3473 58.1465 71.3674 57.9786 71.3573C57.7612 71.3273 57.5044 71.4074 57.3562 71.3573C57.1882 71.3373 56.9511 71.3974 56.7437 71.3573C56.5066 71.3874 56.2596 71.3674 55.9533 71.3573C55.6965 71.3774 55.5779 71.4375 55.5582 71.6078C55.5187 71.9084 55.5878 72.1088 55.5582 72.2692C55.5285 72.4596 55.5681 72.6199 55.5582 72.7401C55.5384 72.9405 55.5483 73.0307 55.5582 73.2111C55.5483 73.3413 55.5779 73.5017 55.657 73.6119C55.7459 73.7221 55.9435 73.692 56.0818 73.7121C56.2596 73.7421 56.5362 73.7321 56.7536 73.7121C57.0005 73.7021 57.1981 73.7522 57.4352 73.7121C57.6921 73.7221 57.86 73.7221 58.107 73.7121C58.3441 73.692 58.5515 73.7421 58.7985 73.7221C58.9566 73.7021 59.0356 73.7622 59.1542 73.8824C59.2628 73.9526 59.2826 74.0728 59.2925 74.2532Z" fill="#004B88"/>
</svg>
